<svg xmlns="http://www.w3.org/2000/svg" width="1280" height="549" viewBox="0 0 1280 549">
  <defs>
    <linearGradient id="bg" x1="0" y1="0" x2="1" y2="1">
      <stop offset="0%" stop-color="#1b1410"/>
      <stop offset="55%" stop-color="#261a12"/>
      <stop offset="100%" stop-color="#332214"/>
    </linearGradient>
  </defs>
  <rect width="1280" height="549" fill="url(#bg)"/>
  <defs>
    <pattern id="grid" width="72" height="72" patternUnits="userSpaceOnUse" patternTransform="skewX(-8)">
      <path d="M 72 0 L 0 0 0 72" fill="none" stroke="rgba(255,255,255,0.055)" stroke-width="1"/>
    </pattern>
  </defs>
  <rect width="1280" height="549" fill="url(#grid)"/>
  <g>
    <line x1="250.0" y1="195.0" x2="250.0" y2="135.0" stroke="#f7c878" stroke-width="3" opacity="0.25"/><line x1="302.5" y1="209.1" x2="332.5" y2="157.1" stroke="#f7c878" stroke-width="3" opacity="0.45"/><line x1="340.9" y1="247.5" x2="392.9" y2="217.5" stroke="#f7c878" stroke-width="3" opacity="0.65"/><line x1="355.0" y1="300.0" x2="415.0" y2="300.0" stroke="#f7c878" stroke-width="3" opacity="0.25"/><line x1="340.9" y1="352.5" x2="392.9" y2="382.5" stroke="#f7c878" stroke-width="3" opacity="0.45"/><line x1="302.5" y1="390.9" x2="332.5" y2="442.9" stroke="#f7c878" stroke-width="3" opacity="0.65"/><line x1="250.0" y1="405.0" x2="250.0" y2="465.0" stroke="#f7c878" stroke-width="3" opacity="0.25"/><line x1="197.5" y1="390.9" x2="167.5" y2="442.9" stroke="#f7c878" stroke-width="3" opacity="0.45"/><line x1="159.1" y1="352.5" x2="107.1" y2="382.5" stroke="#f7c878" stroke-width="3" opacity="0.65"/><line x1="145.0" y1="300.0" x2="85.0" y2="300.0" stroke="#f7c878" stroke-width="3" opacity="0.25"/><line x1="159.1" y1="247.5" x2="107.1" y2="217.5" stroke="#f7c878" stroke-width="3" opacity="0.45"/><line x1="197.5" y1="209.1" x2="167.5" y2="157.1" stroke="#f7c878" stroke-width="3" opacity="0.65"/>
    <circle cx="250" cy="300" r="82" fill="none" stroke="#f0a35e" stroke-width="3.5" opacity="0.85"/>
    <path d="M 0 430 L 900 430 L 940 470 L 0 470 Z" fill="rgba(8,10,16,0.9)"/>
    <g fill="#f0a35e" opacity="0.6">
      <rect x="60" y="442" width="4" height="10"/><rect x="146" y="442" width="4" height="27"/><rect x="232" y="442" width="4" height="24"/><rect x="318" y="442" width="4" height="21"/><rect x="404" y="442" width="4" height="18"/><rect x="490" y="442" width="4" height="15"/><rect x="576" y="442" width="4" height="12"/><rect x="662" y="442" width="4" height="29"/><rect x="748" y="442" width="4" height="26"/><rect x="834" y="442" width="4" height="23"/>
    </g>
  </g>
  <g>
    <text x="1000" y="399" font-family="'Arial Black','Microsoft YaHei','PingFang SC',sans-serif" font-weight="900" font-size="240" fill="#f0a35e" opacity="0.92" text-anchor="middle" dominant-baseline="middle">光</text>
    <text x="1000" y="504" font-family="'Courier New',monospace" font-size="30" letter-spacing="14" fill="rgba(255,255,255,0.8)" text-anchor="middle">LIGHT</text>
  </g>
  <path d="M 30 30 v 34 M 30 30 h 34" fill="none" stroke="rgba(255,255,255,0.32)" stroke-width="2.5"/><path d="M 1250 30 v 34 M 1250 30 h 34" fill="none" stroke="rgba(255,255,255,0.32)" stroke-width="2.5"/><path d="M 30 519 v 34 M 30 519 h 34" fill="none" stroke="rgba(255,255,255,0.32)" stroke-width="2.5"/><path d="M 1250 519 v 34 M 1250 519 h 34" fill="none" stroke="rgba(255,255,255,0.32)" stroke-width="2.5"/>
  <g>
    <path d="M 0 453 L 470 453 L 540 531 L 0 531 Z" fill="rgba(8,10,16,0.88)"/>
    <path d="M 540 531 H 470" stroke="#f0a35e" stroke-width="3"/>
    <text x="36" y="501" font-family="'Courier New',monospace" font-size="22" letter-spacing="6" fill="#f7c878">BLENDER · GOLDEN HOUR</text>
  </g>
  <defs>
    <filter id="noise">
      <feTurbulence type="fractalNoise" baseFrequency="0.8" numOctaves="2" stitchTiles="stitch"/>
      <feColorMatrix type="saturate" values="0"/>
      <feComponentTransfer><feFuncA type="linear" slope="0.055"/></feComponentTransfer>
    </filter>
  </defs>
  <rect width="1280" height="549" filter="url(#noise)"/>
  <defs>
    <radialGradient id="vig" cx="50%" cy="45%" r="80%">
      <stop offset="55%" stop-color="rgba(0,0,0,0)"/>
      <stop offset="100%" stop-color="rgba(0,0,0,0.6)"/>
    </radialGradient>
  </defs>
  <rect width="1280" height="549" fill="url(#vig)"/>
</svg>
