<svg xmlns="http://www.w3.org/2000/svg" width="1280" height="549" viewBox="0 0 1280 549">
  <defs>
    <linearGradient id="bg" x1="0" y1="0" x2="1" y2="1">
      <stop offset="0%" stop-color="#11161f"/>
      <stop offset="55%" stop-color="#182030"/>
      <stop offset="100%" stop-color="#212c42"/>
    </linearGradient>
  </defs>
  <rect width="1280" height="549" fill="url(#bg)"/>
  <defs>
    <pattern id="grid" width="72" height="72" patternUnits="userSpaceOnUse" patternTransform="skewX(-8)">
      <path d="M 72 0 L 0 0 0 72" fill="none" stroke="rgba(255,255,255,0.055)" stroke-width="1"/>
    </pattern>
  </defs>
  <rect width="1280" height="549" fill="url(#grid)"/>
  <g>
    <path d="M 120 490 C 60 400 240 360 180 250 C 140 180 30 200 60 100" fill="none" stroke="#f0a35e" stroke-width="4" opacity="0.85"/>
    <rect x="90" y="470" width="30" height="10" fill="#f0a35e" opacity="0.85" transform="rotate(-18 90 470)"/><rect x="136" y="425" width="30" height="10" fill="#7fd6c2" opacity="0.78" transform="rotate(-18 136 425)"/><rect x="182" y="380" width="30" height="10" fill="#f0a35e" opacity="0.71" transform="rotate(-18 182 380)"/><rect x="228" y="335" width="30" height="10" fill="#7fd6c2" opacity="0.6399999999999999" transform="rotate(-18 228 335)"/><rect x="274" y="290" width="30" height="10" fill="#f0a35e" opacity="0.57" transform="rotate(-18 274 290)"/><rect x="320" y="245" width="30" height="10" fill="#7fd6c2" opacity="0.49999999999999994" transform="rotate(-18 320 245)"/><rect x="366" y="200" width="30" height="10" fill="#f0a35e" opacity="0.42999999999999994" transform="rotate(-18 366 200)"/><rect x="412" y="155" width="30" height="10" fill="#7fd6c2" opacity="0.35999999999999993" transform="rotate(-18 412 155)"/><rect x="458" y="110" width="30" height="10" fill="#f0a35e" opacity="0.2899999999999999" transform="rotate(-18 458 110)"/>
  </g>
  <g>
    <text x="1000" y="399" font-family="'Arial Black','Microsoft YaHei','PingFang SC',sans-serif" font-weight="900" font-size="240" fill="#f0a35e" opacity="0.92" text-anchor="middle" dominant-baseline="middle">滚</text>
    <text x="1000" y="504" font-family="'Courier New',monospace" font-size="30" letter-spacing="14" fill="rgba(255,255,255,0.8)" text-anchor="middle">SCROLL</text>
  </g>
  <path d="M 30 30 v 34 M 30 30 h 34" fill="none" stroke="rgba(255,255,255,0.32)" stroke-width="2.5"/><path d="M 1250 30 v 34 M 1250 30 h 34" fill="none" stroke="rgba(255,255,255,0.32)" stroke-width="2.5"/><path d="M 30 519 v 34 M 30 519 h 34" fill="none" stroke="rgba(255,255,255,0.32)" stroke-width="2.5"/><path d="M 1250 519 v 34 M 1250 519 h 34" fill="none" stroke="rgba(255,255,255,0.32)" stroke-width="2.5"/>
  <g>
    <path d="M 0 453 L 470 453 L 540 531 L 0 531 Z" fill="rgba(8,10,16,0.88)"/>
    <path d="M 540 531 H 470" stroke="#f0a35e" stroke-width="3"/>
    <text x="36" y="501" font-family="'Courier New',monospace" font-size="22" letter-spacing="6" fill="#7fd6c2">JAVASCRIPT · GSAP SCROLLTRIGGER</text>
  </g>
  <defs>
    <filter id="noise">
      <feTurbulence type="fractalNoise" baseFrequency="0.8" numOctaves="2" stitchTiles="stitch"/>
      <feColorMatrix type="saturate" values="0"/>
      <feComponentTransfer><feFuncA type="linear" slope="0.055"/></feComponentTransfer>
    </filter>
  </defs>
  <rect width="1280" height="549" filter="url(#noise)"/>
  <defs>
    <radialGradient id="vig" cx="50%" cy="45%" r="80%">
      <stop offset="55%" stop-color="rgba(0,0,0,0)"/>
      <stop offset="100%" stop-color="rgba(0,0,0,0.6)"/>
    </radialGradient>
  </defs>
  <rect width="1280" height="549" fill="url(#vig)"/>
</svg>
